<svg xmlns="http://www.w3.org/2000/svg" viewBox="0 0 64 64" role="img" aria-labelledby="title desc">
  <title>offerU logo</title>
  <desc>An offerU document mark with a U path and accepted offer check.</desc>
  <defs>
    <linearGradient id="bg" x1="8" x2="56" y1="7" y2="57" gradientUnits="userSpaceOnUse">
      <stop stop-color="#0f172a"/>
      <stop offset=".55" stop-color="#12313b"/>
      <stop offset="1" stop-color="#064e3b"/>
    </linearGradient>
    <linearGradient id="accent" x1="18" x2="50" y1="46" y2="15" gradientUnits="userSpaceOnUse">
      <stop stop-color="#14b8a6"/>
      <stop offset=".6" stop-color="#22d3ee"/>
      <stop offset="1" stop-color="#a7f3d0"/>
    </linearGradient>
  </defs>
  <rect width="64" height="64" rx="16" fill="url(#bg)"/>
  <path d="M21.5 13.5h16.3L47 22.8v27.7H21.5c-3.1 0-5.5-2.5-5.5-5.5V19c0-3 2.4-5.5 5.5-5.5Z" fill="#f8fafc"/>
  <path d="M37.5 14v9.4h9.3" fill="#dbeafe"/>
  <path d="M22.8 23.7v12.9c0 6 3.7 10 9 10s9-4 9-10V23.7" fill="none" stroke="#0f172a" stroke-width="4.8" stroke-linecap="round"/>
  <path d="m24.6 35.8 5.2 5.2 11.8-13.8" fill="none" stroke="url(#accent)" stroke-width="4.4" stroke-linecap="round" stroke-linejoin="round"/>
  <path d="M43.2 43.9V33.6h-4.4l7.4-7.5 7.4 7.5h-4.4v10.3h-6Z" fill="url(#accent)"/>
  <path d="M43.2 43.9V33.6h-4.4l7.4-7.5 7.4 7.5h-4.4v10.3h-6Z" fill="none" stroke="#052e2b" stroke-width="1.5" stroke-linejoin="round" opacity=".26"/>
</svg>
